<svg xmlns="http://www.w3.org/2000/svg" width="35" height="33" fill="none" viewBox="0 0 35 33"><path fill="#000" d="M11.0398 5L10.0057 12.1663C9.85949 13.1798 12.5719 15.033 12.5909 16.2614V27.5227H14.6591V16.2614C14.6591 15.0328 17.3906 13.1798 17.2443 12.1663L16.2102 5H15.1762L15.6932 10.6307L14.1421 11.6544V5H13.108V11.6544L11.5568 10.6307L12.0739 5H11.0398ZM25 5C21.8977 5 20.8769 8.53033 20.8636 11.1426V17.2851H22.9318V27.5227H25V5Z"/><path stroke="#E0E0E0" d="M34.5 16.0417C34.5 24.585 26.9307 31.5833 17.5 31.5833C8.06932 31.5833 0.5 24.585 0.5 16.0417C0.5 7.4983 8.06932 0.5 17.5 0.5C26.9307 0.5 34.5 7.4983 34.5 16.0417Z"/></svg>