<svg xmlns="http://www.w3.org/2000/svg" width="35" height="33" fill="none" viewBox="0 0 35 33"><path fill="#000" d="M17.1778 26.9182C11.1238 17.7153 10 16.7708 10 13.3886C10 8.75568 13.5817 5 18 5C22.4183 5 26 8.75568 26 13.3886C26 16.7708 24.8763 17.7153 18.8222 26.9182C18.4249 27.52 17.5751 27.52 17.1778 26.9182ZM18 16.8838C19.841 16.8838 21.3333 15.3189 21.3333 13.3886C21.3333 11.4582 19.841 9.89333 18 9.89333C16.159 9.89333 14.6667 11.4582 14.6667 13.3886C14.6667 15.3189 16.159 16.8838 18 16.8838Z"/><path stroke="#E0E0E0" d="M34.5 16.0417C34.5 24.585 26.9307 31.5833 17.5 31.5833C8.06932 31.5833 0.5 24.585 0.5 16.0417C0.5 7.4983 8.06932 0.5 17.5 0.5C26.9307 0.5 34.5 7.4983 34.5 16.0417Z"/></svg>