<svg xmlns="http://www.w3.org/2000/svg" width="20" height="20" fill="none" viewBox="0 0 20 20"><path fill="#212121" d="M1.9803 5.80186C1.61288 3.90651 3.32237 2.19993 5.93593 1.5745C6.89844 1.34417 7.92385 1.73948 8.27697 2.47699L9.11488 4.22703C9.39066 4.80303 9.19192 5.45236 8.61264 5.86813L6.12049 7.65679C5.87094 7.8359 5.76013 8.10561 5.82802 8.3652L5.85017 8.444C5.86394 8.49105 5.8842 8.55765 5.91154 8.64091C5.96617 8.80729 6.04933 9.04123 6.16577 9.31978C6.39739 9.87391 6.76671 10.6192 7.31622 11.3639C7.86574 12.1087 8.50595 12.7316 9.00345 13.1656C9.25353 13.3837 9.47089 13.5571 9.6277 13.6773C9.70619 13.7375 9.76976 13.7846 9.81496 13.8173L9.89234 13.8727C10.1457 14.0485 10.4984 14.1073 10.8214 14.0278L14.0471 13.2333C14.797 13.0487 15.6149 13.2387 16.1147 13.7135L17.6406 15.164C18.2759 15.7678 18.2011 16.654 17.4701 17.1873C15.4705 18.6461 12.721 18.9449 10.8072 17.7416C8.96221 16.5816 6.79086 14.8577 4.97696 12.4179C3.15883 9.97232 2.33567 7.63494 1.9803 5.80186ZM7.84769 8.46439L9.91597 6.97994C11.0746 6.1484 11.472 4.84974 10.9205 3.69775L10.0825 1.94769C9.37203 0.463725 7.30874 -0.331689 5.37203 0.131767C2.12771 0.908141 -0.477272 3.18454 0.0739796 6.02812C0.458969 8.01399 1.34942 10.5389 3.31032 13.1764C5.26327 15.8034 7.60403 17.6631 9.59949 18.9176C12.4675 20.7208 16.298 20.105 18.7851 18.2908C20.2611 17.2139 20.4119 15.4244 19.1293 14.2052L17.6032 12.7547C16.604 11.8049 14.968 11.4249 13.4683 11.7943L10.7912 12.4536C10.6882 12.3708 10.5689 12.2718 10.4388 12.1583C9.99898 11.7746 9.44877 11.2367 8.98604 10.6096C8.52331 9.98247 8.20314 9.34072 7.99836 8.85079C7.93779 8.70589 7.88785 8.57555 7.84769 8.46439Z"/></svg>